# xmcd
# 
# Track frame offsets:
#     150
#     4481
#     28491
#     32664
#     57982
#     62160
#     82315
#     96714
#     101020
#     121527
#     138148
#     144095
#     172996
#     177156
#     188799
#     195426
# 
# Disc length: 2716
# 
# Revision: 2
# Processed by: cddbd v1.5.2PL0 Copyright (c) Steve Scherf et al.
# Submitted via: fre:ac v1.0.17
# 
DISCID=dd0a9a10
DTITLE=Ibrahim Maalouf - Levantine Symphony No.1
DYEAR=2018
DGENRE=Jazz
TTITLE0=Prelude
TTITLE1=Overture
TTITLE2=Theme 1
TTITLE3=Movement I
TTITLE4=Theme 2
TTITLE5=Movement II
TTITLE6=Movement III
TTITLE7=Theme 3
TTITLE8=Movement IV
TTITLE9=Movement V
TTITLE10=Theme 4
TTITLE11=Movement VI
TTITLE12=Theme 5
TTITLE13=Movement VII
TTITLE14=Epilogue
TTITLE15=Final
EXTD=YEAR: 2018
EXTT0=
EXTT1=
EXTT2=
EXTT3=
EXTT4=
EXTT5=
EXTT6=
EXTT7=
EXTT8=
EXTT9=
EXTT10=
EXTT11=
EXTT12=
EXTT13=
EXTT14=
EXTT15=
PLAYORDER=
